<?xml version="1.0" encoding="utf-8"?>
<!-- Generator: Adobe Illustrator 16.2.1, SVG Export Plug-In . SVG Version: 6.00 Build 0)  -->
<!DOCTYPE svg PUBLIC "-//W3C//DTD SVG 1.1//EN" "http://www.w3.org/Graphics/SVG/1.1/DTD/svg11.dtd">
<svg version="1.1" id="Layer_1" xmlns="http://www.w3.org/2000/svg" xmlns:xlink="http://www.w3.org/1999/xlink" x="0px" y="0px"
	 width="18px" height="30px" viewBox="0 0 18 30" enable-background="new 0 0 18 30" xml:space="preserve">
<g>
	<path id="svg_2" fill="#E24B36" stroke="#CC3333" stroke-width="0.6848" stroke-miterlimit="10" d="M9.021,27.952
		c-0.627-3.071-1.727-5.626-3.063-7.996C4.966,18.2,3.82,16.579,2.757,14.874c-0.355-0.567-0.662-1.171-1.003-1.759
		c-0.681-1.183-1.235-2.552-1.197-4.328c0.032-1.73,0.535-3.122,1.259-4.26c1.189-1.872,3.18-3.406,5.855-3.808
		c2.186-0.328,4.235,0.229,5.688,1.078c1.189,0.696,2.11,1.621,2.808,2.716C16.897,5.654,17.399,7,17.441,8.759
		c0.021,0.903-0.125,1.736-0.334,2.427c-0.21,0.699-0.546,1.288-0.848,1.914c-0.589,1.219-1.327,2.34-2.062,3.457
		C11.992,19.891,9.928,23.29,9.021,27.952z"/>
	<circle id="svg_4" fill="#332E2F" cx="8.999" cy="8.771" r="2.958"/>
	<g>
		<defs>
			<polygon id="SVGID_1_" points="17.444,0.655 9.021,0.624 9.021,27.952 17.444,27.982 			"/>
		</defs>
		<clipPath id="SVGID_2_">
			<use xlink:href="#SVGID_1_"  overflow="visible"/>
		</clipPath>
		<path id="svg_2_1_" clip-path="url(#SVGID_2_)" fill="#CC3333" d="M9.021,27.952c-0.627-3.071-1.727-5.626-3.063-7.996
			C4.966,18.2,3.82,16.579,2.757,14.874c-0.355-0.567-0.662-1.171-1.003-1.759c-0.681-1.183-1.235-2.552-1.197-4.328
			c0.032-1.73,0.535-3.122,1.259-4.26c1.189-1.872,3.18-3.406,5.855-3.808c2.186-0.328,4.235,0.229,5.688,1.078
			c1.189,0.696,2.11,1.621,2.808,2.716C16.897,5.654,17.399,7,17.441,8.759c0.021,0.903-0.125,1.736-0.334,2.427
			c-0.21,0.699-0.546,1.288-0.848,1.914c-0.589,1.219-1.327,2.34-2.062,3.457C11.992,19.891,9.928,23.29,9.021,27.952z"/>
		<circle id="svg_4_1_" clip-path="url(#SVGID_2_)" cx="8.999" cy="8.771" r="2.958"/>
	</g>
</g>
</svg>
