<?xml version="1.0" encoding="utf-8"?>
<!-- Generator: Adobe Illustrator 16.2.1, SVG Export Plug-In . SVG Version: 6.00 Build 0)  -->
<!DOCTYPE svg PUBLIC "-//W3C//DTD SVG 1.1//EN" "http://www.w3.org/Graphics/SVG/1.1/DTD/svg11.dtd">
<svg version="1.1" id="Layer_1" xmlns="http://www.w3.org/2000/svg" xmlns:xlink="http://www.w3.org/1999/xlink" x="0px" y="0px"
	 width="7.359px" height="10.089px" viewBox="0 0 7.359 10.089" enable-background="new 0 0 7.359 10.089" xml:space="preserve">
<rect width="7.359" height="10.089"/>
<path fill="#FFFFFF" d="M5.754,4.787H5.412l-1.05-1.509L5.406,2.06h0.269c0.053,0,0.079-0.026,0.079-0.079V1.7
	c0-0.053-0.026-0.078-0.079-0.078H4.599C4.546,1.622,4.52,1.647,4.52,1.7v0.27c0,0.053,0.026,0.079,0.079,0.079h0.28L3.897,3.178
	H3.68H3.372C3.088,3.173,2.869,3.132,2.7,3.075C2.688,3.07,2.678,3.066,2.666,3.062C2.579,3.028,2.5,2.992,2.433,2.952
	C2.205,2.811,2.15,2.653,2.148,2.646C2.128,2.59,2.117,2.528,2.117,2.461c0-0.148,0.052-0.264,0.156-0.347
	C2.376,2.032,2.515,1.99,2.687,1.99s0.329,0.043,0.47,0.127L3.141,2.471C3.137,2.523,3.162,2.55,3.215,2.55H3.51
	c0.053,0,0.079-0.026,0.079-0.079V1.743c0-0.05-0.024-0.081-0.074-0.096C3.255,1.57,2.995,1.532,2.735,1.532
	c-0.374,0-0.665,0.1-0.876,0.301c-0.211,0.2-0.316,0.453-0.316,0.76c0,0.306,0.099,0.532,0.295,0.681
	c0.099,0.077,0.195,0.14,0.291,0.188c0.095,0.047,0.234,0.102,0.419,0.163c0.185,0.062,0.335,0.143,0.451,0.243
	c0.116,0.1,0.174,0.236,0.174,0.408c0,0.355-0.218,0.533-0.654,0.533c-0.112,0-0.222-0.019-0.33-0.056S2.004,4.677,1.959,4.635
	L1.98,4.196c0.003-0.053-0.021-0.079-0.074-0.079H1.611c-0.053,0-0.08,0.026-0.08,0.079v0.839c0,0.05,0.025,0.081,0.074,0.096
	c0.292,0.091,0.587,0.137,0.886,0.137c0.405,0,0.717-0.098,0.937-0.293c0.22-0.195,0.33-0.467,0.33-0.815
	c0-0.134-0.024-0.255-0.071-0.364c-0.031-0.07-0.063-0.132-0.098-0.184h0.303l1.061,1.53c0.032,0.042,0.074,0.062,0.126,0.062h0.675
	c0.053,0,0.079-0.026,0.079-0.079V4.866C5.833,4.814,5.808,4.787,5.754,4.787z"/>
<g>
	<path fill="#FFFFFF" d="M2.043,6.425C2.006,6.397,1.958,6.384,1.9,6.384c-0.023,0-0.047,0.003-0.069,0.007
		C1.808,6.396,1.788,6.403,1.771,6.414C1.753,6.426,1.739,6.44,1.729,6.459C1.718,6.477,1.712,6.5,1.712,6.527
		c0,0.025,0.007,0.047,0.023,0.062C1.75,6.605,1.771,6.619,1.796,6.63c0.025,0.01,0.054,0.018,0.086,0.024
		C1.915,6.661,1.947,6.669,1.98,6.677c0.034,0.008,0.066,0.017,0.098,0.027c0.032,0.01,0.061,0.024,0.086,0.043
		C2.19,6.765,2.211,6.788,2.226,6.815c0.015,0.026,0.023,0.062,0.023,0.103c0,0.045-0.01,0.083-0.03,0.115
		C2.199,7.064,2.173,7.09,2.142,7.11C2.111,7.13,2.076,7.145,2.037,7.153C1.998,7.162,1.96,7.167,1.921,7.167
		c-0.047,0-0.091-0.006-0.133-0.018S1.709,7.12,1.678,7.096C1.646,7.072,1.621,7.042,1.603,7.005
		C1.584,6.967,1.575,6.924,1.575,6.872h0.105c0,0.035,0.007,0.065,0.021,0.092C1.715,6.989,1.733,7.01,1.755,7.026
		c0.022,0.017,0.048,0.028,0.078,0.036c0.029,0.008,0.06,0.012,0.091,0.012c0.025,0,0.05-0.002,0.076-0.007s0.048-0.013,0.069-0.024
		c0.02-0.011,0.037-0.026,0.049-0.046c0.012-0.02,0.019-0.045,0.019-0.075c0-0.029-0.007-0.053-0.023-0.07
		C2.099,6.833,2.079,6.818,2.053,6.808C2.028,6.796,1.999,6.787,1.967,6.78C1.935,6.772,1.902,6.766,1.869,6.758
		C1.836,6.751,1.803,6.742,1.771,6.732S1.71,6.709,1.685,6.693S1.639,6.656,1.624,6.632C1.608,6.605,1.601,6.574,1.601,6.535
		c0-0.042,0.009-0.079,0.026-0.109C1.644,6.395,1.667,6.369,1.695,6.35c0.029-0.021,0.061-0.035,0.098-0.045
		C1.829,6.295,1.867,6.29,1.905,6.29c0.043,0,0.083,0.005,0.12,0.015c0.037,0.011,0.069,0.027,0.097,0.049s0.049,0.05,0.066,0.083
		C2.203,6.47,2.212,6.51,2.214,6.556H2.108C2.102,6.495,2.08,6.451,2.043,6.425z"/>
	<path fill="#FFFFFF" d="M2.5,6.311v0.36h0.441v-0.36h0.111v0.838H2.941V6.765H2.5v0.384H2.388V6.311H2.5z"/>
	<path fill="#FFFFFF" d="M3.591,6.311l0.328,0.838H3.795L3.704,6.896H3.349L3.255,7.148H3.141l0.326-0.838H3.591z M3.668,6.802
		l-0.14-0.391H3.526L3.384,6.802H3.668z"/>
	<path fill="#FFFFFF" d="M4.121,6.311v0.838H4.009V6.311H4.121z"/>
	<path fill="#FFFFFF" d="M4.43,6.311l0.441,0.68h0.002v-0.68h0.105v0.838H4.857L4.419,6.476H4.417v0.673H4.312V6.311H4.43z"/>
	<path fill="#FFFFFF" d="M5.515,6.311l0.328,0.838H5.72L5.628,6.896H5.274L5.18,7.148H5.066l0.326-0.838H5.515z M5.593,6.802
		l-0.14-0.391H5.451L5.309,6.802H5.593z"/>
	<path fill="#FFFFFF" d="M1.735,7.719v0.418L2.16,7.719h0.145L1.951,8.058l0.368,0.499H2.177L1.875,8.134l-0.14,0.13v0.293H1.623
		V7.719H1.735z"/>
	<path fill="#FFFFFF" d="M2.522,7.973c0.017-0.053,0.042-0.099,0.076-0.14S2.673,7.76,2.723,7.735
		c0.05-0.024,0.108-0.036,0.175-0.036c0.066,0,0.125,0.012,0.175,0.036s0.092,0.057,0.125,0.098s0.059,0.087,0.076,0.14
		C3.292,8.026,3.3,8.081,3.3,8.138c0,0.058-0.008,0.112-0.025,0.165c-0.017,0.053-0.042,0.1-0.076,0.141S3.124,8.517,3.073,8.54
		c-0.05,0.024-0.108,0.036-0.175,0.036c-0.067,0-0.125-0.012-0.175-0.036c-0.05-0.023-0.092-0.056-0.125-0.097
		S2.539,8.355,2.522,8.303C2.505,8.25,2.497,8.195,2.497,8.138C2.497,8.081,2.505,8.026,2.522,7.973z M2.625,8.264
		c0.011,0.041,0.028,0.077,0.052,0.11s0.054,0.06,0.09,0.079c0.037,0.021,0.081,0.03,0.132,0.03s0.095-0.01,0.131-0.03
		c0.037-0.02,0.067-0.046,0.09-0.079s0.041-0.069,0.052-0.11c0.011-0.041,0.016-0.083,0.016-0.126c0-0.042-0.005-0.083-0.016-0.124
		C3.161,7.973,3.144,7.936,3.12,7.902s-0.054-0.06-0.09-0.08c-0.037-0.02-0.081-0.029-0.131-0.029s-0.095,0.01-0.132,0.029
		C2.73,7.843,2.7,7.869,2.676,7.902s-0.041,0.07-0.052,0.111C2.614,8.055,2.608,8.096,2.608,8.138
		C2.608,8.181,2.614,8.223,2.625,8.264z"/>
	<path fill="#FFFFFF" d="M3.777,8.557L3.482,7.719h0.12l0.24,0.728h0.002l0.242-0.728h0.116L3.903,8.557H3.777z"/>
	<path fill="#FFFFFF" d="M4.725,7.719l0.328,0.838H4.93L4.838,8.305H4.483L4.389,8.557H4.275l0.327-0.838H4.725z M4.803,8.211
		L4.663,7.82H4.661L4.519,8.211H4.803z"/>
	<path fill="#FFFFFF" d="M5.384,7.719v0.744h0.444v0.094H5.272V7.719H5.384z"/>
</g>
</svg>
